<svg id="Layer_1" data-name="Layer 1" xmlns="http://www.w3.org/2000/svg" viewBox="0 0 363.1 52.25"><defs><style>.cls-1{fill:#5c5082;}</style></defs><path class="cls-1" d="M41.53,48.11V64.49H35.65V61.31a10.18,10.18,0,0,1-8.27,3.81c-4.71,0-9.06-3.07-9.06-8.42,0-4.82,4.4-8.32,9.86-8.32,4.61,0,7,1.8,7,1.8V48.75c0-3.29-3.18-4.35-5.4-4.35a20.36,20.36,0,0,0-7.53,1.86L20.18,41a25.41,25.41,0,0,1,9.91-2.28C37.29,38.73,41.53,42.39,41.53,48.11Zm-6.36,8.8v-2.6A12.71,12.71,0,0,0,29.45,53c-2,0-4.66.85-4.66,3.55s2.59,3.24,4.55,3.24A7.44,7.44,0,0,0,35.17,56.91Z" transform="translate(-18.32 -24.42)"/><path class="cls-1" d="M71.9,64.49H66V61.2a8.68,8.68,0,0,1-7.58,3.92c-6.52,0-12.24-5.45-12.24-13.19s5.72-13.2,12.24-13.2A9,9,0,0,1,65.54,42V24.42H71.9ZM65.54,48.17a7,7,0,0,0-6-3.5c-4.29,0-6.89,3.13-6.89,7.26s2.6,7.26,6.89,7.26a7,7,0,0,0,6-3.5Z" transform="translate(-18.32 -24.42)"/><path class="cls-1" d="M104.12,51.93a13.41,13.41,0,1,1-13.4-13.2A13.2,13.2,0,0,1,104.12,51.93Zm-6.46,0c0-3.92-2.65-7.26-6.94-7.26s-7,3.34-7,7.26,2.65,7.26,7,7.26S97.66,55.85,97.66,51.93Z" transform="translate(-18.32 -24.42)"/><path class="cls-1" d="M114.67,39.37v3.28a9.12,9.12,0,0,1,7.58-3.92c6.52,0,12.24,5.46,12.24,13.2s-5.72,13.19-12.24,13.19a9,9,0,0,1-7.1-3.23V76.68h-6.36V39.37Zm.48,16.32a7,7,0,0,0,6,3.5c4.29,0,6.89-3.13,6.89-7.26s-2.6-7.26-6.89-7.26a7,7,0,0,0-6,3.5Z" transform="translate(-18.32 -24.42)"/><path class="cls-1" d="M137.15,39.37h4.92V31.9h6.36v7.47H156v5.72h-7.58V55.21c0,3.08,1.59,4,3.29,4a5,5,0,0,0,2.65-.9l2.33,5.19a11.43,11.43,0,0,1-6,1.64c-4.88,0-8.59-3.55-8.59-8.9V45.09h-4.92Z" transform="translate(-18.32 -24.42)"/><path class="cls-1" d="M198.83,48.11V64.49H193V61.31a10.18,10.18,0,0,1-8.27,3.81c-4.71,0-9.06-3.07-9.06-8.42,0-4.82,4.4-8.32,9.86-8.32,4.61,0,7,1.8,7,1.8V48.75c0-3.29-3.18-4.35-5.4-4.35a20.36,20.36,0,0,0-7.53,1.86L177.48,41a25.41,25.41,0,0,1,9.91-2.28C194.59,38.73,198.83,42.39,198.83,48.11Zm-6.36,8.8v-2.6A12.66,12.66,0,0,0,186.75,53c-2,0-4.66.85-4.66,3.55s2.59,3.24,4.56,3.24A7.43,7.43,0,0,0,192.47,56.91Z" transform="translate(-18.32 -24.42)"/><path class="cls-1" d="M244.2,48.22V64.49h-6.36V49.81c0-3.6-2.22-5.14-5-5.14-3.28,0-5,3.28-5,3.28V64.49h-6.36V24.42h6.36v18a8.53,8.53,0,0,1,7.1-3.66C239.86,38.73,244.2,42.18,244.2,48.22Z" transform="translate(-18.32 -24.42)"/><path class="cls-1" d="M272.61,48.11V64.49h-5.88V61.31a10.18,10.18,0,0,1-8.27,3.81c-4.72,0-9.06-3.07-9.06-8.42,0-4.82,4.4-8.32,9.85-8.32,4.62,0,7,1.8,7,1.8V48.75c0-3.29-3.18-4.35-5.41-4.35a20.35,20.35,0,0,0-7.52,1.86L251.25,41a25.47,25.47,0,0,1,9.91-2.28C268.37,38.73,272.61,42.39,272.61,48.11Zm-6.36,8.8v-2.6A12.71,12.71,0,0,0,260.53,53c-2,0-4.67.85-4.67,3.55s2.6,3.24,4.56,3.24A7.44,7.44,0,0,0,266.25,56.91Z" transform="translate(-18.32 -24.42)"/><path class="cls-1" d="M280.93,56s3.34,3.6,7.58,3.6c2.6,0,4.77-.74,4.77-2.28s-1.16-2-5-2.75c-5-1.06-9.33-3.18-9.33-8,0-3.93,3.92-7.85,10.81-7.85a16,16,0,0,1,9.44,3.08L296,46.47a11.72,11.72,0,0,0-6.26-2.17c-2.38,0-4.55.85-4.55,2.38s1.69,1.91,5.93,2.81c5,1.06,8.53,2.7,8.53,7.9,0,4.29-4.55,7.73-11,7.73a15.69,15.69,0,0,1-11.34-4.55Z" transform="translate(-18.32 -24.42)"/><path class="cls-1" d="M311.67,49.28l9-9.91h8.22l-11,11.87,11.77,13.25h-8.38l-9.59-11v11h-6.36V24.42h6.36Z" transform="translate(-18.32 -24.42)"/><path class="cls-1" d="M355.45,51.82c0,.48,0,1.43-.05,2.39H336.64a7.16,7.16,0,0,0,7,5.08,10.12,10.12,0,0,0,6.89-2.54l3.18,4.77a16.08,16.08,0,0,1-10.07,3.6,13.2,13.2,0,0,1-13.51-13.19c0-7.37,5.35-13.2,12.61-13.2C349.67,38.73,355.45,44.09,355.45,51.82Zm-6.36-2.22c-.11-2.18-2.12-5.09-6.31-5.09a5.77,5.77,0,0,0-6.14,5.09Z" transform="translate(-18.32 -24.42)"/><path class="cls-1" d="M360.86,24.42h6.36V64.49h-6.36Z" transform="translate(-18.32 -24.42)"/><path class="cls-1" d="M375.06,24.42h6.36V64.49h-6.36Z" transform="translate(-18.32 -24.42)"/></svg>